# xmcd
#
# Track frame offsets: 
#        150
#        17507
#        38600
#        56039
#
# Disc length: 1017 seconds
#
# Revision: 0
# Processed by: cddbd v1.5.1PL2 Copyright (c) Steve Scherf et al.
# Submitted via: ExactAudioCopy v0.95b4
#
DISCID=2603f704
DTITLE=Fume - Posthumous
DYEAR=2002
DGENRE=Rock
TTITLE0=City Sinbads
TTITLE1=Suffocating
TTITLE2=Biochem
TTITLE3=Sandtimer
EXTD=
EXTT0=
EXTT1=
EXTT2=
EXTT3=
PLAYORDER=
